<svg xmlns="http://www.w3.org/2000/svg" viewBox="0 0 24 24"><path fill="white" d="M19.615 3.184A3.005 3.005 0 0017.697 3C14.262 3 9.739 3 6.304 3a3.005 3.005 0 00-1.918.184A3.223 3.223 0 003.184 4.304 10.506 10.506 0 003 6.303C3 9.738 3 14.261 3 17.697a3.005 3.005 0 00.184 1.918 3.223 3.223 0 001.12 1.12A3.005 3.005 0 006.304 21c3.435 0 7.958 0 11.393 0a3.005 3.005 0 001.918-.184 3.223 3.223 0 001.12-1.12A3.005 3.005 0 0021 17.696c0-3.435 0-7.958 0-11.393a3.005 3.005 0 00-.184-1.918 3.223 3.223 0 00-1.12-1.12zM10 15.5v-7l6 3.5-6 3.5z"/></svg>